
<svg width="80" height="80" viewBox="0 0 80 80" fill="none" xmlns="http://www.w3.org/2000/svg">
  <circle cx="40" cy="40" r="40" fill="#25D366"/>
  <path d="M56.6667 40.0001C56.6667 49.2049 49.2048 56.6668 40 56.6668C36.5 56.6668 33.25 55.5835 30.5833 53.7501L23.3333 56.6668L26.25 49.4168C24.4167 46.7501 23.3333 43.5001 23.3333 40.0001C23.3333 30.7953 30.7953 23.3334 40 23.3334C49.2048 23.3334 56.6667 30.7953 56.6667 40.0001Z" stroke="white" stroke-width="3.33333" stroke-miterlimit="10" stroke-linecap="round" stroke-linejoin="round"/>
  <path d="M47.0833 43.6667C47.0833 44.2667 46.9667 44.8833 46.7167 45.4833C46.4667 46.0833 46.1333 46.6667 45.6833 47.2C44.9333 48.1 44.1 48.7333 43.15 49.1167C42.2167 49.5 41.2 49.7 40.1 49.7C38.4833 49.7 36.75 49.2667 34.9 48.3833L34.3333 48.0833H34.25L31.8333 49.2L31.0333 46.9167V46.8333L30.75 46.3C29.8667 44.45 29.4167 42.7167 29.4167 41.1167C29.4167 40.0167 29.6 38.9833 29.9833 38.05C30.3667 37.1167 31 36.2667 31.9 35.5167C32.4333 35.0667 33.0167 34.7333 33.6333 34.5C34.25 34.2667 34.9 34.15 35.6 34.15H35.8333C36.3667 34.15 36.8833 34.3333 37.3667 34.6833C37.85 35.0333 38.2333 35.5333 38.5167 36.1667L39 37.35C39.2667 37.9833 39.4 38.45 39.4 38.7667C39.4 39.0167 39.3333 39.2333 39.2 39.4333C39.0667 39.6333 38.9 39.8 38.7 39.9667L38.1333 40.5333C38.0167 40.65 37.9667 40.7667 37.9667 40.8833C37.9667 40.9333 37.9833 40.9833 38 41.05C38.0333 41.1167 38.05 41.1667 38.0667 41.2L38.15 41.35C38.4333 41.85 38.9167 42.4333 39.5833 43.1333C40.2667 43.8167 40.8833 44.3 41.4333 44.5667L41.6 44.65C41.6667 44.6833 41.7333 44.7167 41.8 44.7333C41.8667 44.75 41.9333 44.7667 42 44.7667C42.1333 44.7667 42.2667 44.7 42.3833 44.5667L43.0333 43.9167L43.15 43.8C43.35 43.5833 43.55 43.4167 43.75 43.3167C43.95 43.2167 44.1667 43.15 44.4167 43.15C44.6333 43.15 44.8833 43.2 45.1667 43.3C45.45 43.4 45.75 43.5167 46.0667 43.7L47.0833 44.3167V43.6667Z" fill="white"/>
</svg>
